# xmcd
#
# Track frame offsets: 
#        150
#        26100
#        38715
#        46177
#        62347
#        81579
#        99772
#        112015
#        130797
#
# Disc length: 2081 seconds
#
# Revision: 0
# Processed by: cddbd v1.4PL0 Copyright (c) Steve Scherf et al.
# Submitted via: ExactAudioCopy v0.90b4
#
DISCID=6c081f09
DTITLE=King Biscuit Boy - Gooduns
DYEAR=1972
DGENRE=Blues
TTITLE0=You Done Tore Your Playhouse Down
TTITLE1=Boom Boom (Out Go The Lights)
TTITLE2=Georgia Rag
TTITLE3=Barefoot Rock
TTITLE4=The Boogie Walk
TTITLE5=Ranky Tanky
TTITLE6=Twenty Nine Ways
TTITLE7=Bald Headed Rhumba Boogie
TTITLE8=Lord Pity Us All
EXTD=
EXTT0=
EXTT1=
EXTT2=
EXTT3=
EXTT4=
EXTT5=
EXTT6=
EXTT7=
EXTT8=
PLAYORDER=
